<?xml version="1.0" standalone="no"?>
<!DOCTYPE svg PUBLIC "-//W3C//DTD SVG 20010904//EN"
 "http://www.w3.org/TR/2001/REC-SVG-20010904/DTD/svg10.dtd">
<svg version="1.0" xmlns="http://www.w3.org/2000/svg"
 width="1184.000000pt" height="1184.000000pt" viewBox="0 0 1184.000000 1184.000000"
 preserveAspectRatio="xMidYMid meet">

<g transform="translate(0.000000,1184.000000) scale(0.100000,-0.100000)"
fill="#000000" stroke="none">
<path d="M4070 8880 l0 -370 -370 0 -370 0 0 -370 0 -370 -370 0 -370 0 0
-1110 0 -1110 370 0 370 0 0 -370 0 -370 370 0 370 0 0 -370 0 -370 370 0 370
0 0 -370 0 -370 370 0 370 0 0 -370 0 -370 370 0 370 0 0 370 0 370 370 0 370
0 0 370 0 370 370 0 370 0 0 370 0 370 370 0 370 0 0 370 0 370 370 0 370 0 0
1110 0 1110 -370 0 -370 0 0 370 0 370 -370 0 -370 0 0 370 0 370 -740 0 -740
0 0 -370 0 -370 -370 0 -370 0 0 370 0 370 -740 0 -740 0 0 -370z"/>
</g>
</svg>
